HIERARCHY
ROOT hip
{
  OFFSET -3.37227 68.442 220.542
  CHANNELS 6 Xposition Yposition Zposition Zrotation Xrotation Yrotation
  JOINT abdomen
  {
    OFFSET 0 20.6881 -0.73152
    CHANNELS 3 Zrotation Xrotation Yrotation
    JOINT chest
    {
      OFFSET 0 11.7043 -0.48768
      CHANNELS 3 Zrotation Xrotation Yrotation
      JOINT neck
      {
        OFFSET 0 22.1894 -2.19456
        CHANNELS 3 Zrotation Xrotation Yrotation
        JOINT head
        {
          OFFSET -0.24384 7.07133 1.2192
          CHANNELS 3 Zrotation Xrotation Yrotation
          JOINT leftEye
          {
            OFFSET 4.14528 8.04674 8.04672
            CHANNELS 3 Zrotation Xrotation Yrotation
            End Site
            {
              OFFSET 1 0 0
            }
          }
          JOINT rightEye
          {
            OFFSET -3.6576 8.04674 8.04672
            CHANNELS 3 Zrotation Xrotation Yrotation
            End Site
            {
              OFFSET 1 0 0
            }
          }
        }
      }
      JOINT rCollar
      {
        OFFSET -2.68224 19.2634 -4.8768
        CHANNELS 3 Zrotation Xrotation Yrotation
        JOINT rShldr
        {
          OFFSET -8.77824 -1.95073 1.46304
          CHANNELS 3 Zrotation Xrotation Yrotation
          JOINT rForeArm
          {
            OFFSET -28.1742 -1.7115 0.48768
            CHANNELS 3 Zrotation Xrotation Yrotation
            JOINT rHand
            {
              OFFSET -22.5879 0.773209 7.07136
              CHANNELS 3 Zrotation Xrotation Yrotation
              JOINT rThumb1
              {
                OFFSET -1.2192 -0.487915 3.41376
                CHANNELS 3 Zrotation Xrotation Yrotation
                JOINT rThumb2
                {
                  OFFSET -3.37035 -0.52449 3.41376
                  CHANNELS 3 Zrotation Xrotation Yrotation
                  End Site
                  {
                    OFFSET -1.78271 -1.18214 1.43049
                  }
                }
              }
              JOINT rIndex1
              {
                OFFSET -7.75947 0.938293 5.60832
                CHANNELS 3 Zrotation Xrotation Yrotation
                JOINT rIndex2
                {
                  OFFSET -2.54057 -0.884171 1.56538
                  CHANNELS 3 Zrotation Xrotation Yrotation
                  End Site
                  {
                    OFFSET -1.62519 -0.234802 1.16502
                  }
                }
              }
              JOINT rMid1
              {
                OFFSET -8.24714 1.18213 3.41376
                CHANNELS 3 Zrotation Xrotation Yrotation
                JOINT rMid2
                {
                  OFFSET -3.10165 -0.590103 1.0647
                  CHANNELS 3 Zrotation Xrotation Yrotation
                  End Site
                  {
                    OFFSET -2.48547 -0.328903 0.83742
                  }
                }
              }
              JOINT rRing1
              {
                OFFSET -8.82822 0.546677 1.51678
                CHANNELS 3 Zrotation Xrotation Yrotation
                JOINT rRing2
                {
                  OFFSET -2.60934 -0.819778 -0.0198488
                  CHANNELS 3 Zrotation Xrotation Yrotation
                  End Site
                  {
                    OFFSET -2.33842 -0.294052 0.168128
                  }
                }
              }
              JOINT rPinky1
              {
                OFFSET -8.27202 -0.0477905 -0.4584
                CHANNELS 3 Zrotation Xrotation Yrotation
                JOINT rPinky2
                {
                  OFFSET -1.82734 -0.647385 -0.700984
                  CHANNELS 3 Zrotation Xrotation Yrotation
                  End Site
                  {
                    OFFSET -1.69225 -0.51767 -0.607171
                  }
                }
              }
            }
          }
        }
      }
      JOINT lCollar
      {
        OFFSET 2.68224 19.2634 -4.8768
        CHANNELS 3 Zrotation Xrotation Yrotation
        JOINT lShldr
        {
          OFFSET 8.77824 -1.95073 1.46304
          CHANNELS 3 Zrotation Xrotation Yrotation
          JOINT lForeArm
          {
            OFFSET 28.1742 -1.7115 0.48768
            CHANNELS 3 Zrotation Xrotation Yrotation
            JOINT lHand
            {
              OFFSET 22.5879 0.773209 7.07136
              CHANNELS 3 Zrotation Xrotation Yrotation
              JOINT lThumb1
              {
                OFFSET 1.2192 -0.487915 3.41376
                CHANNELS 3 Zrotation Xrotation Yrotation
                JOINT lThumb2
                {
                  OFFSET 3.37035 -0.52449 3.41376
                  CHANNELS 3 Zrotation Xrotation Yrotation
                  End Site
                  {
                    OFFSET 1.78271 -1.18214 1.43049
                  }
                }
              }
              JOINT lIndex1
              {
                OFFSET 7.75947 0.938293 5.60832
                CHANNELS 3 Zrotation Xrotation Yrotation
                JOINT lIndex2
                {
                  OFFSET 2.54057 -0.884171 1.56538
                  CHANNELS 3 Zrotation Xrotation Yrotation
                  End Site
                  {
                    OFFSET 1.62519 -0.234802 1.16502
                  }
                }
              }
              JOINT lMid1
              {
                OFFSET 8.24714 1.18213 3.41376
                CHANNELS 3 Zrotation Xrotation Yrotation
                JOINT lMid2
                {
                  OFFSET 3.10165 -0.590103 1.0647
                  CHANNELS 3 Zrotation Xrotation Yrotation
                  End Site
                  {
                    OFFSET 2.48547 -0.328903 0.83742
                  }
                }
              }
              JOINT lRing1
              {
                OFFSET 8.82822 0.546677 1.51678
                CHANNELS 3 Zrotation Xrotation Yrotation
                JOINT lRing2
                {
                  OFFSET 2.60934 -0.819778 -0.0198488
                  CHANNELS 3 Zrotation Xrotation Yrotation
                  End Site
                  {
                    OFFSET 2.33842 -0.294052 0.168128
                  }
                }
              }
              JOINT lPinky1
              {
                OFFSET 8.27202 -0.0477905 -0.4584
                CHANNELS 3 Zrotation Xrotation Yrotation
                JOINT lPinky2
                {
                  OFFSET 1.82734 -0.647385 -0.700984
                  CHANNELS 3 Zrotation Xrotation Yrotation
                  End Site
                  {
                    OFFSET 1.69225 -0.51767 -0.607171
                  }
                }
              }
            }
          }
        }
      }
    }
  }
  JOINT rButtock
  {
    OFFSET -8.77824 4.35084 1.2192
    CHANNELS 3 Zrotation Xrotation Yrotation
    JOINT rThigh
    {
      OFFSET 0 -1.70687 -2.19456
      CHANNELS 3 Zrotation Xrotation Yrotation
      JOINT rShin
      {
        OFFSET 0 -36.8199 0.73152
        CHANNELS 3 Zrotation Xrotation Yrotation
        JOINT rFoot
        {
          OFFSET 0.73152 -45.1104 -5.12064
          CHANNELS 3 Zrotation Xrotation Yrotation
          End Site
          {
            OFFSET -1.1221 -3.69964 12.103
          }
        }
      }
    }
  }
  JOINT lButtock
  {
    OFFSET 8.77824 4.35084 1.2192
    CHANNELS 3 Zrotation Xrotation Yrotation
    JOINT lThigh
    {
      OFFSET 0 -1.70687 -2.19456
      CHANNELS 3 Zrotation Xrotation Yrotation
      JOINT lShin
      {
        OFFSET 0 -36.8199 0.73152
        CHANNELS 3 Zrotation Xrotation Yrotation
        JOINT lFoot
        {
          OFFSET -0.73152 -45.1104 -5.12064
          CHANNELS 3 Zrotation Xrotation Yrotation
          End Site
          {
            OFFSET 1.1221 -3.69964 12.103
          }
        }
      }
    }
  }
}
MOTION
Frames:	8
Frame Time:	0.00833333
-1.58143 67.8633 -46.9881 0.916236 0.00143153 -0.0169725 -1.2051 -0.00379154 -0.0330407 -0.33218 -0.00228203 -0.0575402 1.13937e-015 -7.95139e-016 -1.61513e-016 3.83282e-015 3.18055e-015 -4.96962e-016 -0 0 0 -0 0 0 5.45288e-016 -1.04828e-017 4.96962e-017 1.47001e-014 -8.38623e-016 -3.97569e-016 1.99878e-013 -6.69904e-014 -3.18055e-014 2.23385e-012 7.03201e-015 -3.37139e-013 5.27271e-012 -1.2143e-013 -7.91958e-013 9.09281e-012 -2.06736e-013 -1.38434e-012 5.27893e-012 -1.20066e-013 -8.015e-013 7.73091 5.47488 0.417314 5.27341e-012 -1.21358e-013 -7.88778e-013 2.90554 0.965183 0.102902 5.28199e-012 -1.20563e-013 -7.97524e-013 10.2786 0.731801 0.0259123 5.27078e-012 -1.22451e-013 -7.88778e-013 2.22167 -0.733487 -0.20892 5.4807e-016 -1.20358e-017 -1.49089e-016 8.37293e-015 -4.22417e-016 -2.5842e-015 1.94262e-013 4.69132e-014 -4.13472e-014 2.21039e-012 -1.06524e-013 -3.21236e-013 5.21775e-012 -1.24563e-013 -8.07861e-013 9.01886e-012 -2.13097e-013 -1.37798e-012 5.21054e-012 -1.21259e-013 -7.95139e-013 -7.73091 5.47488 -0.417314 5.21666e-012 -1.24439e-013 -8.015e-013 -2.90554 0.965183 -0.102902 5.21205e-012 -1.24141e-013 -7.9991e-013 -10.2786 0.731801 -0.0259123 5.22386e-012 -1.23644e-013 -8.0468e-013 -2.22167 -0.733487 0.20892 -2.03217e-016 0 -3.88251e-019 -0.39891 -1.9209 -0.010445 -0.00935237 -2.07854 -0.0772919 -0.514969 3.9968 0.140717 2.03217e-016 0 3.88251e-019 -1.43425 -5.89295 0.12777 -0.000945726 5.11639 -0.0408245 0.53156 0.774038 -0.0764297 
0.896025 67.4474 -43.8713 1.59844 -3.92237 4.04732 -1.72308 4.89513 -2.21981 1.04745 -1.51359 -0.58778 -0.381388 -0.834332 0.12369 -1.63077 -1.39688 0.300202 -0 0 0 -0 0 0 -2.99908e-014 -2.24004e-014 5.53627e-014 20.5288 8.47022 -11.2348 -13.4721 -10.5387 14.0635 0.00476485 -1.54847 -0.217348 1.33506e-010 2.12645e-010 9.32862e-012 2.30298e-010 3.68182e-010 1.7328e-011 1.33512e-010 2.12646e-010 9.32308e-012 7.73091 5.47488 0.417314 1.33506e-010 2.12644e-010 9.33108e-012 2.90554 0.965183 0.102902 1.33515e-010 2.12644e-010 9.32577e-012 10.2786 0.731801 0.0259123 1.33504e-010 2.12643e-010 9.33456e-012 2.22167 -0.733487 -0.20892 -2.99742e-014 -2.24044e-014 5.51627e-014 -18.2632 14.7068 -1.15476 26.3602 -24.032 -13.9788 -0.00254152 -1.1518 0.161766 2.39709e-010 -1.13828e-009 -5.75831e-010 4.15963e-010 -1.97496e-009 -9.9606e-010 2.39703e-010 -1.13827e-009 -5.75821e-010 -7.73091 5.47488 -0.417314 2.3971e-010 -1.13828e-009 -5.75824e-010 -2.90554 0.965183 -0.102902 2.39704e-010 -1.13828e-009 -5.75824e-010 -10.2786 0.731801 -0.0259123 2.39714e-010 -1.13828e-009 -5.7583e-010 -2.22167 -0.733487 0.20892 -2.03217e-016 0 -3.88251e-019 -2.89028 -12.0484 -1.28753 -0.124086 8.75322 -0.0817487 -0.278603 7.60452 -2.98601 2.03217e-016 0 3.88251e-019 -0.133326 -6.80958 -1.06749 -0.108502 26.745 -0.338466 0.0412768 -1.71573 -4.04639 
0.9469 67.2059 -41.0883 3.029 -7.974 8.46008 -2.00553 10.0228 -4.63118 2.51479 -3.08144 -1.16727 -0.762888 -1.71209 0.271109 -3.34441 -2.85677 0.645418 -0 0 0 -0 0 0 -6.28411e-014 -4.76599e-014 1.1905e-013 45.9471 16.3279 -24.0038 -22.0914 -19.5949 30.3916 -0.00301663 -3.15877 -0.443919 2.62347e-010 4.80834e-010 2.32797e-011 4.52438e-010 8.32582e-010 4.28336e-011 2.62352e-010 4.80836e-010 2.32787e-011 7.73091 5.47488 0.417314 2.62347e-010 4.80833e-010 2.32815e-011 2.90554 0.965183 0.102902 2.62356e-010 4.80833e-010 2.32798e-011 10.2786 0.731801 0.0259123 2.62345e-010 4.80832e-010 2.32886e-011 2.22167 -0.733487 -0.20892 -6.28073e-014 -4.76667e-014 1.18848e-013 -36.7498 30.2913 -2.70716 37.7292 -44.0354 -37.9078 0.0019945 -2.40118 0.337467 4.98158e-010 -2.3878e-009 -1.20731e-009 8.6445e-010 -4.14277e-009 -2.0884e-009 4.98154e-010 -2.38779e-009 -1.20731e-009 -7.73091 5.47488 -0.417314 4.98161e-010 -2.3878e-009 -1.20731e-009 -2.90554 0.965183 -0.102902 4.98153e-010 -2.3878e-009 -1.20731e-009 -10.2786 0.731801 -0.0259123 4.98163e-010 -2.3878e-009 -1.20732e-009 -2.22167 -0.733487 0.20892 -2.03217e-016 0 -3.88251e-019 -6.19258 -22.6939 -2.78844 -0.245098 20.0148 -0.0979163 0.424404 11.4658 -6.39934 2.03217e-016 0 3.88251e-019 1.05943 -7.64505 -2.39968 0.149161 49.4863 -0.891389 -0.838691 -4.26895 -8.2185 
0.849645 67.556 -38.5432 4.6479 -11.5314 12.4016 -1.60802 14.6052 -6.78943 3.72256 -4.53457 -1.65282 -1.13335 -2.50295 0.371384 -4.84831 -4.19018 0.902752 -0 0 0 -0 0 0 -9.1063e-014 -6.71802e-014 1.65989e-013 71.4979 21.4042 -36.1709 -25.3586 -23.7914 46.3569 -0.0210476 -4.64513 -0.653954 3.89973e-010 6.38176e-010 2.95698e-011 6.72707e-010 1.10496e-009 5.47525e-011 3.89978e-010 6.38178e-010 2.95722e-011 7.73091 5.47488 0.417314 3.89972e-010 6.38174e-010 2.95708e-011 2.90554 0.965183 0.102902 3.89982e-010 6.38174e-010 2.95724e-011 10.2786 0.731801 0.0259123 3.8997e-010 6.38174e-010 2.95812e-011 2.22167 -0.733487 -0.20892 -9.10188e-014 -6.71892e-014 1.65786e-013 -52.4241 44.034 -4.66326 31.2516 -49.0402 -70.7603 0.011917 -3.45528 0.486083 7.08691e-010 -3.41459e-009 -1.72588e-009 1.22985e-009 -5.92446e-009 -2.98543e-009 7.08688e-010 -3.41457e-009 -1.72587e-009 -7.73091 5.47488 -0.417314 7.08695e-010 -3.41459e-009 -1.72587e-009 -2.90554 0.965183 -0.102902 7.08687e-010 -3.41458e-009 -1.72587e-009 -10.2786 0.731801 -0.0259123 7.08696e-010 -3.41458e-009 -1.72588e-009 -2.22167 -0.733487 0.20892 -2.03217e-016 0 -3.88251e-019 -9.4402 -32.2343 -4.44237 -0.344871 30.4167 -0.101938 1.40504 14.6569 -9.47082 2.03217e-016 0 3.88251e-019 2.35264 -8.63067 -3.47346 1.49375 69.987 -2.41256 -1.97179 -6.56135 -12.061 
0.669305 67.5238 -36.0396 5.53002 -14.0907 14.9516 -0.361699 17.9153 -8.12428 4.3431 -5.70263 -1.89927 -1.48613 -3.07664 0.353409 -5.86482 -5.20795 0.937981 -0 0 0 -0 0 0 -1.07714e-013 -7.23522e-014 1.71054e-013 90.1985 23.597 -44.4225 -26.1231 -23.7549 57.2824 -0.0417515 -5.82188 -0.821068 5.14561e-010 5.18399e-010 1.67075e-011 8.88299e-010 8.97289e-010 3.27048e-011 5.14567e-010 5.184e-010 1.67106e-011 7.73091 5.47488 0.417314 5.14561e-010 5.18396e-010 1.67075e-011 2.90554 0.965183 0.102902 5.1457e-010 5.18396e-010 1.67114e-011 10.2786 0.731801 0.0259123 5.14559e-010 5.18396e-010 1.67202e-011 2.22167 -0.733487 -0.20892 -1.07676e-013 -7.23625e-014 1.70855e-013 -63.0365 53.2656 -6.44017 27.239 -43.3403 -90.1475 0.0198742 -4.02131 0.566098 7.99436e-010 -3.88455e-009 -1.96213e-009 1.38754e-009 -6.74086e-009 -3.39414e-009 7.99433e-010 -3.88452e-009 -1.96213e-009 -7.73091 5.47488 -0.417314 7.9944e-010 -3.88454e-009 -1.96212e-009 -2.90554 0.965183 -0.102902 7.99432e-010 -3.88454e-009 -1.96213e-009 -10.2786 0.731801 -0.0259123 7.9944e-010 -3.88453e-009 -1.96214e-009 -2.22167 -0.733487 0.20892 -2.03217e-016 0 -3.88251e-019 -11.4206 -39.0724 -5.95293 -0.417351 38.6696 -0.0583534 2.14109 16.3355 -11.4609 2.03217e-016 0 3.88251e-019 3.96822 -10.0026 -3.8925 10.1442 84.8434 -11.1488 -3.0585 -8.31842 -15.0137 
0.358818 67.1096 -33.5853 4.62179 -15.4548 15.289 1.99699 19.5265 -8.12556 4.04707 -6.52117 -1.78621 -1.85845 -3.36616 0.154282 -6.21651 -5.79488 0.643581 -0 0 0 -0 0 0 -1.10622e-013 -4.34876e-014 9.65309e-014 96.792 24.4272 -46.4371 -26.2305 -22.8452 60.8481 -0.0579597 -6.67982 -0.943306 6.87806e-010 -1.54533e-010 -1.96729e-011 1.18899e-009 -2.68401e-010 -3.16529e-011 6.87812e-010 -1.54531e-010 -1.96732e-011 7.73091 5.47488 0.417314 6.87805e-010 -1.54536e-010 -1.96744e-011 2.90554 0.965183 0.102902 6.87814e-010 -1.54536e-010 -1.9669e-011 10.2786 0.731801 0.0259123 6.87802e-010 -1.54534e-010 -1.96607e-011 2.22167 -0.733487 -0.20892 -1.10622e-013 -4.34975e-014 9.63469e-014 -68.2168 56.3396 -6.59301 27.2643 -39.7036 -95.3415 0.0180332 -3.82126 0.537839 7.40173e-010 -3.15867e-009 -1.83786e-009 1.28514e-009 -5.48848e-009 -3.17907e-009 7.40169e-010 -3.15864e-009 -1.83786e-009 -7.73091 5.47488 -0.417314 7.40175e-010 -3.15866e-009 -1.83786e-009 -2.90554 0.965183 -0.102902 7.40169e-010 -3.15866e-009 -1.83787e-009 -10.2786 0.731801 -0.0259123 7.40178e-010 -3.15866e-009 -1.83788e-009 -2.22167 -0.733487 0.20892 -2.03217e-016 0 -3.88251e-019 -10.6895 -42.3058 -6.78761 -0.480822 44.0301 0.0784981 2.12478 16.0364 -11.7214 2.03217e-016 0 3.88251e-019 6.44268 -11.8709 -3.3224 153.253 87.5591 -154.312 -3.82276 -9.46441 -16.7885 
-0.136917 66.8255 -31.2289 2.30465 -16.0039 14.0048 5.04005 19.9344 -7.13475 3.11319 -7.0879 -1.41597 -2.24341 -3.45167 -0.173565 -6.09805 -6.07321 0.113927 -0 0 0 -0 0 0 -1.03597e-013 9.02456e-015 -3.38431e-014 94.3132 24.8708 -43.8695 -26.0012 -22.4061 59.4667 -0.0689246 -7.30462 -1.03248 8.93285e-010 -1.21471e-009 -7.30088e-011 1.54611e-009 -2.10477e-009 -1.26482e-010 8.93293e-010 -1.21471e-009 -7.30156e-011 7.73091 5.47488 0.417314 8.93284e-010 -1.21471e-009 -7.3012e-011 2.90554 0.965183 0.102902 8.93292e-010 -1.21471e-009 -7.30061e-011 10.2786 0.731801 0.0259123 8.93279e-010 -1.21471e-009 -7.29983e-011 2.22167 -0.733487 -0.20892 -1.03655e-013 9.01611e-015 -3.40046e-014 -69.9672 55.0247 -5.1573 27.2344 -40.0642 -94.71 0.010609 -3.07792 0.432929 5.7292e-010 -1.59845e-009 -1.45444e-009 9.95512e-010 -2.79256e-009 -2.51558e-009 5.72912e-010 -1.59842e-009 -1.45444e-009 -7.73091 5.47488 -0.417314 5.72918e-010 -1.59844e-009 -1.45443e-009 -2.90554 0.965183 -0.102902 5.72915e-010 -1.59845e-009 -1.45444e-009 -10.2786 0.731801 -0.0259123 5.72926e-010 -1.59845e-009 -1.45445e-009 -2.22167 -0.733487 0.20892 -2.03217e-016 0 -3.88251e-019 -7.78875 -42.9794 -6.95039 -0.555788 47.3187 0.296133 1.55702 14.3311 -10.7503 2.03217e-016 0 3.88251e-019 9.60528 -14.0968 -2.03267 164.161 85.8959 -165.272 -4.27972 -10.1984 -17.7022 
-0.641129 66.7449 -28.9144 -0.245644 -16.1577 12.2571 7.84265 19.8205 -5.81623 2.12602 -7.47617 -0.976901 -2.56855 -3.42371 -0.528309 -5.79198 -6.21031 -0.482862 -0 0 0 -0 0 0 -8.86684e-014 4.86774e-014 -1.53011e-013 88.1167 25.0423 -39.2299 -25.5344 -21.9355 55.9284 -0.0739125 -7.65299 -1.0822 1.02701e-009 -2.16548e-009 -1.38399e-010 1.77916e-009 -3.7519e-009 -2.41888e-010 1.02701e-009 -2.16548e-009 -1.38413e-010 7.73091 5.47488 0.417314 1.027e-009 -2.16549e-009 -1.38404e-010 2.90554 0.965183 0.102902 1.02701e-009 -2.16549e-009 -1.38398e-010 10.2786 0.731801 0.0259123 1.027e-009 -2.16548e-009 -1.38391e-010 2.22167 -0.733487 -0.20892 -8.87822e-014 4.86707e-014 -1.53156e-013 -70.1253 51.8224 -3.25421 27.217 -41.9482 -91.5812 0.00532832 -2.24982 0.31631 3.34156e-010 -3.70518e-010 -9.11797e-010 5.81841e-010 -6.67016e-010 -1.57699e-009 3.34145e-010 -3.70486e-010 -9.11795e-010 -7.73091 5.47488 -0.417314 3.34149e-010 -3.70495e-010 -9.11799e-010 -2.90554 0.965183 -0.102902 3.34149e-010 -3.70517e-010 -9.11804e-010 -10.2786 0.731801 -0.0259123 3.34163e-010 -3.70515e-010 -9.11817e-010 -2.22167 -0.733487 0.20892 -2.03217e-016 0 -3.88251e-019 -4.36454 -42.4313 -6.82625 -0.639646 49.5921 0.543397 0.87751 11.9819 -9.46563 2.03217e-016 0 3.88251e-019 12.5984 -16.5422 -0.53363 162.16 86.5186 -163.309 -4.53158 -10.6869 -18.0861 
